PathFileType	4	(X/Y/Z)	c:/Users/goper/Files/vsCode/490R/osim_files/A02/A02_PWS_06.trc
DataRate	CameraRate	NumFrames	NumMarkers	Units                	OrigDataRate	OrigDataStartFrame	OrigNumFrames
250.00	250.00	10	36	mm	250.0	1467	2933
                Frame#	Time	Mobility_markerset:LPSIS			Mobility_markerset:LASIS			Mobility_markerset:LTH1			Mobility_markerset:LTH2			Mobility_markerset:LTH3			Mobility_markerset:LTH4			Mobility_markerset:LLFE			Mobility_markerset:LMFE			Mobility_markerset:LSH1			Mobility_markerset:LSH2			Mobility_markerset:LSH3			Mobility_markerset:LSH4			Mobility_markerset:LLMAL			Mobility_markerset:LMMAL			Mobility_markerset:LCAL			Mobility_markerset:LMTP5			Mobility_markerset:LTOE			Mobility_markerset:LMTP1			Mobility_markerset:RPSIS			Mobility_markerset:RASIS			Mobility_markerset:RTH1			Mobility_markerset:RTH2			Mobility_markerset:RTH3			Mobility_markerset:RTH4			Mobility_markerset:RLFE			Mobility_markerset:RMFE			Mobility_markerset:RSH1			Mobility_markerset:RSH2			Mobility_markerset:RSH3			Mobility_markerset:RSH4			Mobility_markerset:RLMAL			Mobility_markerset:RMMAL			Mobility_markerset:RCAL			Mobility_markerset:RMTP1			Mobility_markerset:RTOE			Mobility_markerset:RMTP5		
		X1	Y1	Z1	X2	Y2	Z2	X3	Y3	Z3	X4	Y4	Z4	X5	Y5	Z5	X6	Y6	Z6	X7	Y7	Z7	X8	Y8	Z8	X9	Y9	Z9	X10	Y10	Z10	X11	Y11	Z11	X12	Y12	Z12	X13	Y13	Z13	X14	Y14	Z14	X15	Y15	Z15	X16	Y16	Z16	X17	Y17	Z17	X18	Y18	Z18	X19	Y19	Z19	X20	Y20	Z20	X21	Y21	Z21	X22	Y22	Z22	X23	Y23	Z23	X24	Y24	Z24	X25	Y25	Z25	X26	Y26	Z26	X27	Y27	Z27	X28	Y28	Z28	X29	Y29	Z29	X30	Y30	Z30	X31	Y31	Z31	X32	Y32	Z32	X33	Y33	Z33	X34	Y34	Z34	X35	Y35	Z35	X36	Y36	Z36

1467	5.86400	-173.02881	948.20966	300.76031	-313.34442	908.65704	389.12967	-193.01376	662.14734	413.97089	-199.55710	614.93433	412.99277	-249.07077	664.32855	439.55014	-247.56413	618.82764	433.38831	0.00000	0.00000	0.00000	-271.04932	389.25610	316.76617	-133.79591	440.08456	382.50784	-98.75199	412.60251	385.85333	-166.86058	394.21426	405.50284	-127.98603	371.65567	406.26453	62.05586	220.85963	355.01416	37.74341	207.61916	276.09906	86.61701	276.41138	305.60861	104.78049	109.34371	358.98489	58.79633	68.74270	302.14557	0.00000	0.00000	0.00000	-184.22090	961.54285	199.55788	0.00000	0.00000	0.00000	-338.55475	610.67065	124.79173	-352.96762	569.15216	125.53726	0.00000	0.00000	0.00000	-404.05963	581.58398	122.73941	-390.97482	462.03302	115.72739	-415.98877	469.51855	247.63107	-412.06769	277.79440	137.99498	-424.91187	233.74930	148.42885	-470.26181	288.80524	132.96352	-475.92599	242.28235	140.42278	-455.10510	80.92293	147.08780	-470.60205	88.61379	233.98938	-408.52832	62.08774	195.83151	-596.82861	67.11494	221.54382	-614.88513	79.75179	184.24380	-584.22430	60.16945	129.48950
1468	5.86800	-177.75143	949.27448	300.77185	-318.09955	909.76062	388.85916	-200.00452	662.19946	414.25177	-207.13397	615.10638	413.36374	-256.18704	665.01202	439.71814	-255.05612	619.58264	433.59647	0.00000	0.00000	0.00000	-280.94281	389.72363	317.40884	-144.25215	440.80704	383.37292	-108.79568	413.47330	386.86588	-176.99173	394.69684	405.97116	-137.55714	372.82959	407.02707	52.78460	222.32660	355.82037	29.52163	210.79013	276.51959	78.56907	278.52863	307.83835	94.73174	110.46590	358.37683	49.06614	71.29291	300.19495	72.94736	102.77382	248.63290	-188.93964	962.57300	199.54575	0.00000	0.00000	0.00000	-341.88019	611.51788	124.66790	-356.03537	569.92694	125.45541	0.00000	0.00000	0.00000	-406.93460	582.05011	122.64188	-393.49341	462.55661	115.64175	-418.58807	469.89520	247.58577	-413.58243	277.98679	138.26701	-426.02072	234.11816	148.39975	-472.00763	288.94601	132.89230	-477.07529	242.31540	140.36276	-455.36273	81.06834	147.13353	-470.98526	88.55583	233.93369	-408.71048	62.26380	195.87245	-596.98743	66.69181	221.62085	-615.20032	79.16589	184.24303	-584.46979	59.79515	129.48962
1469	5.87200	-182.45035	950.37616	300.74301	-322.85376	910.87091	388.56396	-207.02286	662.33551	414.53653	-214.64764	615.24255	413.64441	-263.24542	665.84253	439.83194	-262.68011	620.30359	433.77911	0.00000	0.00000	0.00000	-290.70694	390.37177	317.93921	-153.85109	441.81631	384.13980	-118.84547	414.29242	387.92758	-187.21986	395.22617	406.44525	-148.24275	372.91745	407.57812	43.41185	223.63014	356.52567	21.24243	213.84453	276.72821	70.48457	280.36441	309.97458	84.09480	111.12768	357.65228	39.03189	73.62239	298.22833	64.75245	106.25921	247.49751	-193.67189	963.73053	199.48845	0.00000	0.00000	0.00000	-345.12799	612.43951	124.54050	-359.13303	570.64508	125.31035	0.00000	0.00000	0.00000	-410.33777	582.43683	122.48819	-395.98984	463.09116	115.57488	-420.92493	470.25073	247.39790	-414.94995	278.39948	138.24908	-427.21872	234.41318	148.28165	-473.46313	288.97797	132.90608	-478.30438	242.33858	140.38120	-455.63168	81.16658	147.23015	-471.38757	88.54233	233.88951	-408.91690	62.40927	195.91893	-597.40930	66.06277	221.07605	-615.42365	78.72488	184.24721	-584.68134	59.45506	129.51833
1470	5.87600	-187.08104	951.46381	300.70798	-327.53348	911.97388	388.31509	-213.94302	662.52155	414.83887	-222.27072	615.50769	414.03107	-270.20093	666.70807	439.95395	-270.19412	621.18561	433.91263	0.00000	0.00000	0.00000	-300.63202	391.13477	318.28174	-164.13426	442.50525	385.18320	-129.02449	415.06827	388.89496	-197.41156	395.84787	406.83939	-157.97182	374.03998	408.14423	33.74229	224.70728	357.11465	12.82317	216.63739	277.03284	62.19465	281.93881	312.11148	73.44089	111.86681	357.13644	28.63515	75.77903	296.30655	54.60898	108.44362	246.89510	-198.33409	964.86273	199.45621	0.00000	0.00000	0.00000	-348.55981	613.23181	124.41619	-362.24658	571.42383	125.16727	-409.54990	626.20856	122.10271	-413.38791	582.86908	122.37259	-398.41696	463.64447	115.48763	-423.24316	470.67218	247.35066	-416.34628	278.85471	138.26440	-428.20401	234.86986	148.26619	-474.85852	289.09491	132.95963	-479.45154	242.41412	140.36081	-455.91412	81.29462	147.32207	-471.60840	88.59991	233.87325	-409.06985	62.59859	195.95139	-597.38531	65.89203	221.79482	-615.68628	78.31276	184.29134	-584.86981	59.13725	129.55862
1471	5.88000	-191.64134	952.60657	300.61594	-332.26752	913.20239	388.04907	-220.97966	662.69611	415.17191	-229.72876	615.76868	414.36383	-277.31235	667.56238	440.02084	-277.68158	622.05237	434.06976	0.00000	0.00000	0.00000	-310.48788	392.02039	318.46899	-174.41139	443.10004	386.26038	-139.13158	415.85776	389.98254	-207.83688	396.27136	406.98230	-168.25458	374.50586	408.54138	24.08567	225.67046	357.61981	4.37178	219.10925	277.33014	54.01767	283.28094	314.05609	62.31457	112.37575	356.62399	18.01643	77.80350	294.44965	45.14136	111.02058	246.04681	-203.02519	965.91656	199.37476	0.00000	0.00000	0.00000	-351.74713	614.04962	124.34204	-365.19031	572.20264	125.11680	0.00000	0.00000	0.00000	-416.52206	583.30725	122.37083	-400.82315	464.13889	115.44473	-425.26273	470.98593	247.15988	-417.67126	279.30872	138.19119	-429.05115	235.43842	148.16617	-476.24118	289.20346	133.03682	-480.53705	242.45239	140.42361	-456.05502	81.42943	147.39180	-471.79279	88.70686	233.85312	-409.21609	62.78122	195.97449	-597.75024	65.21016	220.88460	-615.88849	77.91150	184.34724	-585.05432	58.83085	129.60635
1472	5.88400	-196.29675	953.73718	300.56290	-337.01544	914.30981	387.69220	-227.84801	662.97992	415.50439	-237.31483	615.96906	414.91501	-284.20450	668.53754	440.11847	-285.14484	623.03662	434.17542	0.00000	0.00000	0.00000	-320.26181	393.01227	318.52341	-184.53752	443.76062	387.14023	-149.43983	416.43359	390.98642	-218.23904	396.65149	407.08081	-179.09592	374.43683	408.83322	14.17264	226.48734	358.08914	-4.51710	221.23633	277.65439	45.62343	284.31952	315.83914	50.97527	112.79255	356.13098	6.78229	79.78076	292.75348	35.03239	113.21085	245.26607	-207.59790	967.07202	199.33815	0.00000	0.00000	0.00000	-354.95273	614.88159	124.26984	-368.21375	572.88519	125.06348	-417.61560	625.74237	125.07442	-419.48718	583.72833	122.28139	-403.19839	464.66757	115.40096	-428.13062	471.48358	247.25987	-419.00290	279.79178	138.23883	-430.48996	235.61353	148.28384	-477.59705	289.32883	133.10989	-481.68762	242.53796	140.51503	-456.23959	81.57719	147.43854	-470.94736	89.15565	234.52542	-409.32883	62.95191	195.96758	-597.73138	65.22207	221.74950	-616.06061	77.51609	184.39757	-585.16772	58.57335	129.66728
1473	5.88800	-200.82878	954.88318	300.46783	-341.59073	915.51562	387.36456	-234.84048	663.20361	415.79755	-244.59048	616.58588	414.78970	-291.17670	669.50830	440.19412	-292.51535	624.10278	434.27481	0.00000	0.00000	0.00000	-330.13171	393.93759	318.69952	-194.76022	444.40204	388.00372	-159.71278	416.99445	392.01349	-228.58098	397.06848	407.09012	-189.20860	375.21780	409.00632	4.23954	227.21204	358.47244	-13.66778	223.26680	277.93243	37.08625	285.14978	317.41022	39.45605	113.15220	355.61771	-5.12207	81.60600	291.18237	24.51149	115.10845	244.66617	-212.22258	968.10736	199.20796	0.00000	0.00000	0.00000	-358.14172	615.65295	124.19277	-371.14392	573.56531	124.98791	-420.71280	626.24701	124.81982	-422.61237	584.15399	122.22424	-405.52185	465.15167	115.34693	-430.03928	471.77402	247.06998	-420.33664	280.16080	138.21120	-431.19119	236.23634	148.13057	-479.38199	289.47617	132.53749	-482.65710	242.62189	140.50078	-456.39175	81.70853	147.52286	-471.12769	89.27246	234.47432	-409.41708	63.13561	195.98537	-598.24011	64.64896	221.05890	-616.22211	77.17715	184.42580	-585.30371	58.32236	129.70842
1474	5.89200	-205.39090	956.00848	300.41949	-346.31091	916.67828	387.07687	-241.76097	663.48767	416.09637	-252.15048	617.02734	415.09741	-298.10709	670.44629	440.24197	-299.95883	625.09149	434.34482	0.00000	0.00000	0.00000	-340.02063	394.99625	318.68396	-205.70293	444.59644	389.17090	-169.93246	417.41016	392.98410	-239.21257	397.40817	406.99445	-199.08975	375.93915	409.30539	-5.85620	227.83904	358.86206	-22.91457	225.02103	278.18503	28.52345	285.88852	318.79904	27.76930	113.23457	355.23587	-16.71576	83.16127	289.97461	13.88781	116.73269	244.05466	-216.75354	969.15546	199.12480	0.00000	0.00000	0.00000	-361.19638	616.33020	124.17258	-374.64044	574.02539	124.42782	-423.78790	626.67517	124.59676	-425.57187	584.48346	122.21027	-407.87738	465.59671	115.33698	-432.87177	472.25885	247.21964	-421.65396	280.53970	138.20837	-432.32336	236.54066	148.18416	-480.75427	289.60092	132.51494	-483.85309	242.69461	140.60838	-456.54440	81.82570	147.57666	-471.39600	89.33591	234.40596	-409.52072	63.31706	195.99057	-598.13336	64.47981	221.44963	-616.43774	76.78672	184.44608	-585.42517	58.09416	129.74170
1475	5.89600	-209.95734	957.07947	300.35690	-350.87329	917.85590	386.75635	-248.60242	663.82764	416.31369	-259.61728	617.49567	415.34808	-305.09009	671.47308	440.24756	-307.38055	626.11407	434.35916	0.00000	0.00000	0.00000	-349.79755	396.17102	318.60770	-215.19164	445.43362	389.79849	-180.43741	417.72501	393.95639	-249.73566	397.68439	406.88239	-210.99702	375.09637	409.12421	-15.99143	228.26854	359.22501	-32.49663	226.49213	278.53159	19.48527	286.06641	319.78809	15.97954	113.30750	354.84222	-28.47044	84.63052	288.74240	2.86478	118.00318	243.59850	-221.34407	970.15527	199.07616	-380.59076	940.24304	142.30695	-364.37387	617.01520	124.09932	-377.39517	574.70850	124.53126	-425.52463	627.86902	123.30190	-428.46701	584.85925	122.14426	-410.14145	466.07602	115.32141	-435.18884	472.59387	247.18399	-422.92664	280.93469	138.15601	-433.60272	236.70967	148.32671	-482.08554	289.61896	132.56477	-484.75653	242.72458	140.64073	-456.70795	81.99180	147.66054	-471.61578	89.39796	234.35829	-409.63080	63.47522	196.03773	-598.64319	64.01209	221.11980	-616.71008	76.40223	184.47090	-585.54968	57.84979	129.75162
1476	5.90000	-214.48700	958.15320	300.31680	-355.50754	919.04889	386.45621	-255.60524	664.14636	416.61383	-266.99121	617.98303	415.53568	-312.02783	672.47375	440.22452	-314.78293	627.22534	434.38980	0.00000	0.00000	0.00000	-359.71683	397.14908	318.67880	-224.49579	446.65100	389.91513	-190.75693	418.02875	394.92590	-260.32974	398.06070	406.77460	-221.03903	375.92731	409.11655	-26.49132	228.28902	359.38702	-42.20469	227.62593	278.79709	10.32296	286.10617	320.51282	4.11098	113.22681	354.54572	-40.53500	85.61320	288.02588	-8.50930	118.91651	243.23140	-225.88695	971.12811	198.96036	-385.36041	940.77454	142.55804	-367.35687	617.77100	124.14676	-380.15979	575.36816	124.58571	-428.59067	628.23712	123.35873	-431.42612	585.19025	122.13123	-412.38226	466.50430	115.32083	-437.48218	472.89020	247.18834	-424.23370	281.31631	138.24596	-434.45148	237.16624	148.25504	-483.41324	289.71802	132.56236	-485.85645	242.77026	140.77510	-456.88391	82.11797	147.70818	-471.86420	89.45567	234.31509	-409.74619	63.57948	196.09387	-598.53833	63.91267	221.72789	-616.93213	76.01727	184.48540	-585.69629	57.62284	129.78896
